<?xml version="1.0" encoding="UTF-8" standalone="no"?>
<!-- Created with Inkscape (http://www.inkscape.org/) -->

<svg
   width="127.50275mm"
   height="94.685165mm"
   viewBox="0 0 127.50275 94.685165"
   version="1.1"
   id="svg218"
   xmlns="http://www.w3.org/2000/svg"
   xmlns:svg="http://www.w3.org/2000/svg">
  <defs
     id="defs215" />
  <g
     id="layer1"
     transform="translate(-40.789666,-15.825326)">
    <g
       id="Layer1000"
       transform="matrix(0.26458333,0,0,0.26458333,22.135588,2.7409674)">
      <path
         d="m 70.5036,407.3179 c 80.4123,-123.2947 183.2771,-46.8063 271.1513,-44.7005 7.8733,0.1907 16.937,-6.6285 19.8635,-14.0579 -0.5039,1.766 6.12,-2.3902 5.616,-0.623 -4.5781,10.2415 -11.6354,18.0015 -21.1141,19.7664 -75.1257,13.9736 -171.1562,-70.4713 -244.2697,39.615 z"
         style="fill:#19a485;fill-rule:evenodd"
         id="path64" />
      <path
         d="m 141.1483,392.5364 c 55.2217,-54.7594 134.6932,-12.2411 193.7775,-16.8781 18.2269,-1.4286 24.2752,-14.355 28.895,-25.8298 -0.4011,1.4055 4.6058,-3.9701 4.2047,-2.5635 -3.0443,11.7186 -7.9068,20.8887 -15.0403,26.2123 -39.1076,29.1816 -134.8111,-22.6063 -183.4829,19.0591 z"
         style="fill:#f03f09;fill-rule:evenodd"
         id="path66" />
      <path
         d="M 316.9697,175.7859 479.6263,49.4576 430.1686,176.2536 Z"
         style="fill:#64d1a0;fill-rule:evenodd"
         id="path68" />
      <path
         d="m 479.6318,49.4527 72.772,126.6729 -190.3642,176.4668 z"
         style="fill:#19a485;fill-rule:evenodd"
         id="path70" />
      <path
         d="m 430.1742,176.2536 122.2296,-0.128 -190.7137,178.6525 z"
         style="fill:#f03f09;fill-rule:evenodd"
         id="path72" />
      <path
         d="m 316.9696,175.7859 113.2046,0.4677 -68.4841,178.5245 z"
         style="fill:#2abb9c;fill-rule:evenodd"
         id="path74" />
    </g>
  </g>
</svg>
