<svg width="481.9" height="357.865" viewBox="0 0 127.503 94.685" version="1.1" id="svg218" xmlns="http://www.w3.org/2000/svg"><g id="layer1" transform="translate(-40.79 -15.825)"><g id="Layer1000" transform="matrix(.26458 0 0 .26458 22.136 2.741)"><path d="M70.504 407.318c80.412-123.295 183.277-46.806 271.15-44.7 7.874.19 16.938-6.63 19.864-14.058-.503 1.766 6.12-2.39 5.616-.623-4.578 10.241-11.635 18.001-21.114 19.766-75.125 13.974-171.156-70.471-244.27 39.615z" style="fill:#19a485;fill-rule:evenodd" id="path64"/><path d="M141.148 392.536c55.222-54.759 134.694-12.24 193.778-16.878 18.227-1.428 24.275-14.355 28.895-25.83-.401 1.406 4.606-3.97 4.204-2.563-3.044 11.719-7.906 20.889-15.04 26.212-39.107 29.182-134.81-22.606-183.483 19.06z" style="fill:#f03f09;fill-rule:evenodd" id="path66"/><path d="M316.97 175.786 479.626 49.458 430.17 176.254Z" style="fill:#64d1a0;fill-rule:evenodd" id="path68"/><path d="m479.632 49.453 72.772 126.673L362.04 352.592z" style="fill:#19a485;fill-rule:evenodd" id="path70"/><path d="m430.174 176.254 122.23-.128L361.69 354.778z" style="fill:#f03f09;fill-rule:evenodd" id="path72"/><path d="m316.97 175.786 113.204.468-68.484 178.524z" style="fill:#2abb9c;fill-rule:evenodd" id="path74"/></g></g></svg>